<svg width="91" height="17" viewBox="0 0 91 17" fill="none" xmlns="http://www.w3.org/2000/svg">
<path d="M7.92171 0.114014C11.3803 0.114014 13.7435 2.41495 13.7435 5.87884C13.7435 9.34274 11.2865 11.5973 7.7466 11.5973H4.42828V16.8859H0.911621V0.114014H7.92171ZM4.42828 8.84242H6.97822C8.99297 8.84242 10.1688 7.79629 10.1688 5.89044C10.1688 3.98458 9.0162 2.90368 6.98983 2.90368H4.42828V8.84331V8.84242Z" fill="#0E1C44"/>
<path d="M19.7823 16.8859H16.2656V0.114014H23.3222C27.0131 0.114014 29.2842 2.14829 29.2842 5.46057C29.2842 7.61079 28.1665 9.47027 26.2331 10.2257L29.773 16.8859H25.7908L22.6583 10.7492H19.7823V16.8859ZM19.7823 8.1334H22.8683C24.6382 8.1334 25.6747 7.16844 25.6747 5.50695C25.6747 3.84546 24.5802 2.8573 22.8335 2.8573H19.7823V8.1343V8.1334Z" fill="#0E1C44"/>
<path d="M43.2403 16.8859H32.1086V0.114014H43.2403V3.00802H35.6253V7.0525H42.8096V9.74941H35.6253V13.9919H43.2403V16.8859Z" fill="#0E1C44"/>
<path d="M46.2288 16.8859V0.114014H49.1629L56.8949 10.7955H57.1049V0.114014H60.4696V16.8859H57.5587L49.8035 6.15799H49.5935V16.8859H46.2288V16.8859Z" fill="#0E1C44"/>
<path d="M74.9617 16.8859H63.8301V0.114014H74.9617V3.00802H67.3467V7.0525H74.531V9.74941H67.3467V13.9919H74.9617V16.8859Z" fill="#0E1C44"/>
<path d="M82.0245 16.8859V3.00802H76.9827V0.114014H90.5829V3.00802H85.5411V16.8859H82.0245Z" fill="#0E1C44"/>
</svg>
