<svg width="92" height="65" viewBox="0 0 92 65" fill="none" xmlns="http://www.w3.org/2000/svg">
<path d="M7.60923 47.478C11.1195 47.478 13.518 49.792 13.518 53.2756C13.518 56.7591 11.0243 59.0264 7.43149 59.0264H4.0636V64.345H0.494385V47.478H7.60923ZM4.0636 56.2559H6.65164C8.6965 56.2559 9.88986 55.2039 9.88986 53.2872C9.88986 51.3706 8.72007 50.2835 6.66342 50.2835H4.0636V56.2568V56.2559Z" fill="#0E1C44"/>
<path d="M19.6471 64.345H16.0779V47.478H23.2399C26.9859 47.478 29.291 49.5238 29.291 52.8549C29.291 55.0173 28.1566 56.8873 26.1943 57.647L29.7871 64.345H25.7454L22.5661 58.1734H19.6471V64.345ZM19.6471 55.5428H22.7792C24.5756 55.5428 25.6275 54.5724 25.6275 52.9015C25.6275 51.2306 24.5167 50.2368 22.7439 50.2368H19.6471V55.5437V55.5428Z" fill="#0E1C44"/>
<path d="M43.4556 64.345H32.1576V47.478H43.4556V50.3884H35.7268V54.4558H43.0185V57.168H35.7268V61.4345H43.4556V64.345Z" fill="#0E1C44"/>
<path d="M46.4879 64.345V47.478H49.4659L57.3134 58.2201H57.5265V47.478H60.9416V64.345H57.9872L50.1161 53.5562H49.903V64.345H46.4879Z" fill="#0E1C44"/>
<path d="M75.6509 64.345H64.353V47.478H75.6509V50.3884H67.9222V54.4558H75.2138V57.168H67.9222V61.4345H75.6509V64.345Z" fill="#0E1C44"/>
<path d="M82.8192 64.345V50.3884H77.7021V47.478H91.5056V50.3884H86.3884V64.345H82.8192Z" fill="#0E1C44"/>
<path d="M53.7344 34.8462L63.5796 29.568L54.1996 24.4916L45.5685 29.4945L45.5694 29.5339V39.2213L53.7344 34.8462Z" fill="#008BFF"/>
<path d="M63.5796 29.5679V9.68108L45.5377 0L27.7977 9.84432V29.5966L36.7915 34.3789V14.6669L45.5413 9.67839L54.2005 14.6884L54.1995 24.4915L63.5796 29.5679Z" fill="#1E48D1"/>
<path d="M54.2004 14.6885L45.5413 9.67847L36.7914 14.667V24.7409V24.7418V34.3789L45.5694 39.2213L45.5703 29.4963L54.1995 24.4916V24.3822L54.2004 14.6885Z" fill="#2BD7FE"/>
</svg>
