<svg width="76" height="23" viewBox="0 0 76 23" fill="none" xmlns="http://www.w3.org/2000/svg">
<path d="M28.7127 6.68323C30.6912 6.68323 32.0431 8.00486 32.0431 9.99448C32.0431 11.9841 30.6375 13.2791 28.6125 13.2791H26.7142V16.3168H24.7025V6.68323H28.7127ZM26.7142 11.6967H28.1729C29.3255 11.6967 29.9981 11.0958 29.9981 10.0011C29.9981 8.90644 29.3388 8.28558 28.1796 8.28558H26.7142V11.6972V11.6967Z" fill="#9FBEFF"/>
<path d="M35.4977 16.3168H33.486V6.68323H37.5227C39.6342 6.68323 40.9334 7.85169 40.9334 9.75423C40.9334 10.9893 40.294 12.0574 39.188 12.4912L41.213 16.3168H38.935L37.143 12.7919H35.4977V16.3168ZM35.4977 11.2895H37.2631C38.2756 11.2895 38.8685 10.7352 38.8685 9.78087C38.8685 8.82653 38.2424 8.25894 37.2432 8.25894H35.4977V11.29V11.2895Z" fill="#9FBEFF"/>
<path d="M48.9172 16.3168H42.5492V6.68323H48.9172V8.34551H44.5609V10.6686H48.6708V12.2177H44.5609V14.6545H48.9172V16.3168Z" fill="#9FBEFF"/>
<path d="M50.6267 16.3168V6.68323H52.3052L56.7284 12.8186H56.8485V6.68323H58.7734V16.3168H57.1082L52.6717 10.1548H52.5516V16.3168H50.6267Z" fill="#9FBEFF"/>
<path d="M67.0638 16.3168H60.6958V6.68323H67.0638V8.34551H62.7076V10.6686H66.8175V12.2177H62.7076V14.6545H67.0638V16.3168Z" fill="#9FBEFF"/>
<path d="M71.104 16.3168V8.34551H68.2198V6.68323H76V8.34551H73.1158V16.3168H71.104Z" fill="#9FBEFF"/>
<path d="M15.345 20.2017L20.8947 17.1871L15.6077 14.2877L10.7429 17.145L10.7434 17.1676V22.7005L15.345 20.2017Z" fill="#9FBEFF"/>
<path d="M20.8947 17.1871V5.82878L10.7251 0.299438L0.726624 5.92201V17.2035L5.79535 19.9349V8.67643L10.7276 5.82724L15.6082 8.68873L15.6077 14.2877L20.8947 17.1871Z" fill="#9FBEFF"/>
</svg>
